<svg width="168" height="24" viewBox="0 0 168 24" fill="none" xmlns="http://www.w3.org/2000/svg">
<path d="M22.675 0H1.325C0.593 0 0 0.593 0 1.325V22.676C0 23.407 0.593 24 1.325 24H12.82V14.706H9.692V11.084H12.82V8.413C12.82 5.313 14.713 3.625 17.479 3.625C18.804 3.625 19.942 3.724 20.274 3.768V7.008L18.356 7.009C16.852 7.009 16.561 7.724 16.561 8.772V11.085H20.148L19.681 14.707H16.561V24H22.677C23.407 24 24 23.407 24 22.675V1.325C24 0.593 23.407 0 22.675 0Z" fill="white"/>
<path fill-rule="evenodd" clip-rule="evenodd" d="M156 0C152.741 0 152.333 0.014 151.053 0.072C146.695 0.272 144.273 2.69 144.073 7.052C144.014 8.333 144 8.741 144 12C144 15.259 144.014 15.668 144.072 16.948C144.272 21.306 146.69 23.728 151.052 23.928C152.333 23.986 152.741 24 156 24C159.259 24 159.668 23.986 160.948 23.928C165.302 23.728 167.73 21.31 167.927 16.948C167.986 15.668 168 15.259 168 12C168 8.741 167.986 8.333 167.928 7.053C167.732 2.699 165.311 0.273 160.949 0.073C159.668 0.014 159.259 0 156 0ZM156 2.163C159.204 2.163 159.584 2.175 160.85 2.233C164.102 2.381 165.621 3.924 165.769 7.152C165.827 8.417 165.838 8.797 165.838 12.001C165.838 15.206 165.826 15.585 165.769 16.85C165.62 20.075 164.105 21.621 160.85 21.769C159.584 21.827 159.206 21.839 156 21.839C152.796 21.839 152.416 21.827 151.151 21.769C147.891 21.62 146.38 20.07 146.232 16.849C146.174 15.584 146.162 15.205 146.162 12C146.162 8.796 146.175 8.417 146.232 7.151C146.381 3.924 147.896 2.38 151.151 2.232C152.417 2.175 152.796 2.163 156 2.163ZM149.838 12C149.838 8.597 152.597 5.838 156 5.838C159.403 5.838 162.162 8.597 162.162 12C162.162 15.404 159.403 18.163 156 18.163C152.597 18.163 149.838 15.403 149.838 12ZM156 16C153.791 16 152 14.21 152 12C152 9.791 153.791 8 156 8C158.209 8 160 9.791 160 12C160 14.21 158.209 16 156 16ZM160.965 5.595C160.965 4.8 161.61 4.155 162.406 4.155C163.201 4.155 163.845 4.8 163.845 5.595C163.845 6.39 163.201 7.035 162.406 7.035C161.61 7.035 160.965 6.39 160.965 5.595Z" fill="white"/>
<path d="M108 0C101.373 0 96 5.372 96 12C96 17.084 99.163 21.426 103.627 23.174C103.522 22.225 103.427 20.769 103.669 19.733C103.887 18.796 105.076 13.768 105.076 13.768C105.076 13.768 104.717 13.049 104.717 11.986C104.717 10.318 105.684 9.072 106.888 9.072C107.911 9.072 108.406 9.841 108.406 10.762C108.406 11.791 107.751 13.33 107.412 14.757C107.129 15.951 108.011 16.926 109.189 16.926C111.322 16.926 112.961 14.677 112.961 11.431C112.961 8.558 110.897 6.549 107.949 6.549C104.535 6.549 102.531 9.11 102.531 11.756C102.531 12.787 102.928 13.894 103.424 14.494C103.522 14.613 103.536 14.718 103.507 14.839L103.174 16.199C103.121 16.419 103 16.466 102.772 16.36C101.273 15.662 100.336 13.471 100.336 11.711C100.336 7.926 103.086 4.449 108.265 4.449C112.428 4.449 115.663 7.416 115.663 11.38C115.663 15.516 113.056 18.844 109.436 18.844C108.22 18.844 107.077 18.213 106.686 17.466L105.938 20.319C105.667 21.362 104.936 22.669 104.446 23.465C105.57 23.812 106.763 24 108 24C114.627 24 120 18.627 120 12C120 5.372 114.627 0 108 0Z" fill="white"/>
<path d="M72 4.55699C71.117 4.94899 70.168 5.21299 69.172 5.33199C70.189 4.72299 70.97 3.75799 71.337 2.60799C70.386 3.17199 69.332 3.58199 68.21 3.80299C67.313 2.84599 66.032 2.24799 64.616 2.24799C61.437 2.24799 59.101 5.21399 59.819 8.29299C55.728 8.08799 52.1 6.12799 49.671 3.14899C48.381 5.36199 49.002 8.25699 51.194 9.72299C50.388 9.69699 49.628 9.47599 48.965 9.10699C48.911 11.388 50.546 13.522 52.914 13.997C52.221 14.185 51.462 14.229 50.69 14.081C51.316 16.037 53.134 17.46 55.29 17.5C53.22 19.123 50.612 19.848 48 19.54C50.179 20.937 52.768 21.752 55.548 21.752C64.69 21.752 69.855 14.031 69.543 7.10599C70.505 6.41099 71.34 5.54399 72 4.55699Z" fill="white"/>
</svg>
